<?xml version="1.0" standalone="no"?><!DOCTYPE svg PUBLIC "-//W3C//DTD SVG 1.1//EN" "http://www.w3.org/Graphics/SVG/1.1/DTD/svg11.dtd"><svg t="1533984295621" class="icon" style="" viewBox="0 0 1024 1024" version="1.1" xmlns="http://www.w3.org/2000/svg" p-id="3370" xmlns:xlink="http://www.w3.org/1999/xlink" width="48" height="48"><defs><style type="text/css"></style></defs><path d="M818.7 925.7H198.5c-57.5 0-104.3-46.8-104.3-104.3V201.2c0-57.5 46.8-104.3 104.3-104.3h620.2c57.5 0 104.3 46.8 104.3 104.3v620.2c0 57.5-46.8 104.3-104.3 104.3zM198.5 136.3c-35.8 0-64.8 29.1-64.8 64.8v620.2c0 35.8 29.1 64.8 64.8 64.8h620.2c35.8 0 64.8-29.1 64.8-64.8V201.2c0-35.8-29.1-64.8-64.8-64.8H198.5z" fill="#ffffff" p-id="3371" data-spm-anchor-id="a313x.7781069.0.i7" class=""></path><path d="M711.6 774.4H305.5c-30.6 0-55.4-24.8-55.4-55.4V312.9c0-30.6 24.8-55.4 55.4-55.4h406.1c30.6 0 55.4 24.8 55.4 55.4V719c0 30.6-24.8 55.4-55.4 55.4z" fill="#1afa29" p-id="3372" data-spm-anchor-id="a313x.7781069.0.i6" class="selected"></path><path d="M716.7 531H305.1c-10.9 0-19.7-8.8-19.7-19.7 0-10.9 8.8-19.7 19.7-19.7h411.6c10.9 0 19.7 8.8 19.7 19.7 0 10.9-8.8 19.7-19.7 19.7z" fill="#ffffff" p-id="3373" data-spm-anchor-id="a313x.7781069.0.i9" class=""></path><path d="M528.3 308.7v411.6c0 10.9-8.8 19.7-19.7 19.7-10.9 0-19.7-8.8-19.7-19.7V308.7c0-10.9 8.8-19.7 19.7-19.7 10.9 0 19.7 8.8 19.7 19.7z" fill="#ffffff" p-id="3374" data-spm-anchor-id="a313x.7781069.0.i8" class=""></path></svg>