<?xml version="1.0" standalone="no"?><!DOCTYPE svg PUBLIC "-//W3C//DTD SVG 1.1//EN" "http://www.w3.org/Graphics/SVG/1.1/DTD/svg11.dtd"><svg t="1538124202704" class="icon" style="" viewBox="0 0 1024 1024" version="1.1" xmlns="http://www.w3.org/2000/svg" p-id="846" xmlns:xlink="http://www.w3.org/1999/xlink" width="200" height="200"><defs><style type="text/css"></style></defs><path d="M851.7 462.3H655.4c-21.3 0-38.6-17.3-38.6-38.6V219.5c0-35.9-29.4-65.3-65.3-65.3h-23.9c-35.9 0-65.3 29.4-65.3 65.3v204.1c0 21.3-17.3 38.6-38.6 38.6H227.3c-35.9 0-65.3 29.4-65.3 65.3v23.9c0 35.9 29.4 65.3 65.3 65.3h196.4c21.3 0 38.6 17.3 38.6 38.6v204.1c0 35.9 29.4 65.3 65.3 65.3h23.9c35.9 0 65.3-29.4 65.3-65.3v-204c0-21.3 17.3-38.6 38.6-38.6h196.4c35.9 0 65.3-29.4 65.3-65.3v-23.9c-0.1-36-29.5-65.3-65.4-65.3z" fill="#1afa29" p-id="847"></path><path d="M512.8 902.5h-23.9c-45 0-81.6-36.6-81.6-81.6V616.7c0-12.3-10-22.3-22.3-22.3H188.6c-45 0-81.6-36.6-81.6-81.6v-23.9c0-45 36.6-81.6 81.6-81.6H385c12.3 0 22.3-10 22.3-22.3V180.9c0-45 36.6-81.6 81.6-81.6h23.9c45 0 81.6 36.6 81.6 81.6V385c0 12.3 10 22.3 22.3 22.3h196.4c45 0 81.6 36.6 81.6 81.6v23.9c0 45-36.6 81.6-81.6 81.6H616.7c-12.3 0-22.3 10-22.3 22.3 0 9-7.3 16.4-16.4 16.4-9 0-16.4-7.3-16.4-16.4 0-30.3 24.7-55 55-55H813c27 0 48.9-21.9 48.9-48.9v-23.9c0-27-21.9-48.9-48.9-48.9H616.7c-30.3 0-55-24.7-55-55V180.9c0-27-21.9-48.9-48.9-48.9h-23.9c-27 0-48.9 21.9-48.9 48.9V385c0 30.3-24.7 55-55 55H188.6c-27 0-48.9 21.9-48.9 48.9v23.9c0 27 21.9 48.9 48.9 48.9H385c30.3 0 55 24.7 55 55v204.1c0 27 21.9 48.9 48.9 48.9h23.9c27 0 48.9-21.9 48.9-48.9V720.7c0-9 7.3-16.4 16.4-16.4 9 0 16.4 7.3 16.4 16.4v100.1c0 45-36.7 81.7-81.7 81.7z" fill="#1afa29" p-id="848"></path></svg>